
<svg version="1.0" xmlns="http://www.w3.org/2000/svg"
 width="200" height="200" viewBox="0 0 640.000000 640.000000"
 preserveAspectRatio="xMidYMid meet">

<g transform="translate(0.000000,640.000000) scale(0.100000,-0.100000)"
fill="#000000" stroke="none">
<path d="M524 6086 c-27 -13 -66 -42 -87 -66 -67 -79 -67 -75 -67 -649 0 -320
4 -530 10 -553 18 -63 70 -129 130 -162 52 -30 62 -31 195 -36 l140 -5 0 -145
0 -145 -130 -5 c-109 -5 -137 -10 -175 -29 -61 -31 -107 -76 -138 -136 l-27
-50 -3 -509 c-3 -588 -4 -579 78 -669 70 -76 107 -90 265 -97 l130 -5 0 -145
0 -145 -125 -6 c-95 -4 -136 -10 -171 -26 -65 -29 -114 -76 -146 -141 l-28
-57 0 -525 c0 -516 0 -526 21 -571 42 -90 121 -149 225 -169 32 -6 548 -10
1384 -10 l1333 0 4 -187 c4 -210 7 -223 78 -292 109 -105 382 -192 750 -237
181 -22 672 -30 867 -15 565 45 929 174 981 347 16 56 18 2819 1 2878 -15 54
-91 127 -179 171 -192 97 -530 164 -906 182 l-142 6 -4 106 c-7 157 -53 242
-162 299 -46 24 -64 27 -183 30 l-133 4 0 148 0 148 142 4 c123 3 149 6 184
25 56 30 103 78 128 133 20 44 21 58 21 590 l0 545 -27 51 c-30 58 -73 98
-133 125 -38 18 -126 19 -2045 19 l-2005 0 -51 -24z m4046 -203 c20 -26 21
-32 18 -526 l-3 -499 -24 -19 c-23 -19 -68 -19 -1983 -19 l-1959 0 -24 25 -25
24 0 491 c0 490 2 521 34 542 6 4 896 8 1978 8 l1967 0 21 -27z m-460 -1413
l0 -150 -1530 0 -1530 0 0 150 0 150 1530 0 1530 0 0 -150z m442 -379 c33 -29
33 -31 33 -118 l0 -88 -55 -2 c-544 -23 -965 -123 -1110 -264 -74 -72 -75 -75
-78 -346 l-4 -243 -1349 0 c-907 0 -1357 3 -1370 10 -48 26 -49 37 -49 537 1
501 1 501 51 529 20 11 372 13 1961 14 l1938 0 32 -29z m628 -435 c304 -38
576 -116 629 -180 18 -21 8 -32 -59 -66 -129 -65 -335 -114 -615 -146 -208
-24 -680 -24 -895 0 -278 30 -524 91 -638 156 -29 17 -52 37 -49 43 7 22 91
67 181 97 147 50 395 93 651 114 119 9 675 -4 795 -18z m-1480 -494 c551 -175
1604 -156 2078 36 l52 22 0 -340 0 -339 -27 -26 c-56 -51 -249 -115 -453 -149
-432 -72 -1005 -66 -1405 15 -136 27 -307 85 -355 120 l-40 29 0 345 0 346 28
-15 c15 -7 70 -27 122 -44z m-360 -482 l0 -150 -1145 0 -1145 0 0 150 0 150
1145 0 1145 0 0 -150z m0 -895 l0 -545 -1354 0 -1355 0 -28 24 -28 24 0 490 0
490 24 26 c13 14 33 27 45 29 11 2 623 5 1359 5 l1337 1 0 -544z m551 401
c563 -115 1378 -90 1807 58 53 18 105 36 115 41 16 7 17 -12 17 -323 0 -278
-2 -333 -15 -345 -71 -72 -316 -143 -630 -184 -178 -23 -785 -26 -960 -5 -260
32 -478 84 -590 139 -92 46 -85 13 -85 388 l0 333 108 -38 c60 -21 164 -50
233 -64z m-230 -847 c234 -85 584 -129 1029 -130 444 0 779 44 1040 137 52 19
96 34 98 34 1 0 2 -150 2 -334 l0 -334 -29 -25 c-85 -71 -350 -141 -676 -179
-173 -20 -735 -17 -915 5 -284 35 -514 94 -613 157 l-47 30 0 341 c0 321 1
341 18 334 9 -5 51 -20 93 -36z"/>
<path d="M850 5669 c-58 -23 -60 -32 -60 -302 l0 -249 29 -29 c54 -53 148 -29
166 43 3 13 5 128 3 256 l-3 232 -25 25 c-29 29 -74 39 -110 24z"/>
<path d="M1292 5665 c-56 -24 -62 -55 -62 -301 0 -174 3 -222 15 -249 29 -59
102 -73 154 -29 l31 26 0 250 c0 159 -4 257 -11 270 -9 17 -65 49 -86 48 -4
-1 -23 -7 -41 -15z"/>
<path d="M1829 5657 c-70 -47 -57 -147 21 -174 50 -17 1410 -17 1460 0 25 9
40 23 54 50 16 34 17 42 4 75 -28 75 6 72 -794 72 l-711 0 -34 -23z"/>
<path d="M3778 5664 c-53 -28 -58 -53 -58 -292 0 -130 4 -231 11 -250 22 -64
103 -83 158 -36 l31 26 0 250 c0 159 -4 257 -11 270 -10 19 -66 48 -91 48 -7
-1 -25 -7 -40 -16z"/>
<path d="M4234 5671 c-12 -5 -31 -22 -43 -37 -21 -27 -22 -34 -19 -277 l3
-249 28 -24 c41 -35 99 -33 138 5 l29 29 0 246 0 246 -27 30 c-30 32 -75 45
-109 31z"/>
<path d="M1850 5253 c-75 -28 -90 -124 -26 -175 19 -16 74 -18 748 -18 523 0
734 3 752 11 33 15 59 71 51 108 -3 16 -17 39 -31 52 l-26 24 -726 2 c-400 1
-734 -1 -742 -4z"/>
<path d="M819 3851 l-29 -29 0 -250 0 -249 25 -26 c36 -35 70 -41 113 -20 59
29 62 42 62 296 0 242 -5 273 -49 297 -39 20 -91 12 -122 -19z"/>
<path d="M1273 3862 c-38 -29 -43 -64 -43 -288 0 -247 6 -275 65 -300 29 -12
44 -13 71 -4 63 21 64 27 64 306 l0 251 -26 27 c-32 31 -96 36 -131 8z"/>
<path d="M1827 3869 c-52 -30 -58 -116 -11 -160 l26 -24 646 -3 c473 -2 654 1
675 9 64 27 78 109 28 160 l-29 29 -659 0 c-428 -1 -664 -4 -676 -11z"/>
<path d="M1843 3455 c-31 -13 -63 -59 -63 -90 0 -32 32 -77 65 -91 50 -21 790
-21 840 0 33 14 65 59 65 91 0 32 -32 77 -65 91 -50 20 -795 20 -842 -1z"/>
<path d="M819 2061 l-29 -29 0 -247 c0 -150 4 -254 10 -266 13 -24 61 -49 94
-49 14 0 40 13 58 29 l33 29 3 239 c3 207 1 242 -13 269 -32 61 -108 72 -156
25z"/>
<path d="M1268 2061 l-33 -29 0 -251 0 -251 28 -27 c22 -22 37 -28 73 -28 38
0 50 5 70 28 24 28 24 28 24 278 l0 251 -29 29 c-40 40 -89 40 -133 0z"/>
<path d="M1822 2065 c-17 -14 -33 -39 -37 -55 -8 -38 18 -94 51 -109 18 -8
189 -11 589 -11 l565 0 32 29 c27 24 33 36 33 71 0 35 -6 47 -33 71 l-32 29
-569 0 -569 0 -30 -25z"/>
<path d="M1824 1652 c-54 -43 -55 -112 -3 -157 l31 -25 573 2 573 3 26 24 c47
44 44 112 -8 153 -19 16 -66 18 -596 18 -530 0 -577 -2 -596 -18z"/>
</g>
</svg>
