<svg version="1.0" xmlns="http://www.w3.org/2000/svg"
 width="200pt" height="200pt" viewBox="0 0 261.000000 225.000000"
 preserveAspectRatio="xMidYMid meet">

<g transform="translate(0.000000,225.000000) scale(0.100000,-0.100000)"
fill="#000000" stroke="none">
<path d="M209 2130 c-42 -12 -77 -40 -101 -79 l-23 -36 -3 -590 c-4 -655 -2
-674 53 -730 50 -50 93 -55 455 -55 l320 0 0 -100 0 -100 -147 0 c-82 0 -166
-5 -188 -11 -51 -14 -110 -73 -124 -124 -17 -62 -14 -190 5 -209 14 -14 92
-16 713 -16 529 0 700 3 709 12 8 8 12 46 12 107 0 119 -19 167 -81 208 -42
28 -45 28 -216 31 l-173 4 0 99 0 99 110 0 109 0 103 -103 c76 -76 122 -113
173 -139 122 -64 113 -63 217 -11 78 39 108 62 188 142 81 81 103 111 143 191
71 142 87 220 94 441 l6 187 -29 23 c-75 62 -127 120 -162 179 -37 62 -41 65
-81 68 l-41 3 0 190 c0 138 -4 199 -14 222 -17 42 -66 83 -114 97 -44 12
-1873 13 -1913 0z m1942 -98 l29 -32 0 -190 0 -190 -222 -2 -222 -3 -34 -59
c-33 -56 -101 -131 -166 -184 l-29 -23 6 -192 c5 -203 22 -298 66 -386 12 -22
21 -45 21 -51 0 -14 -1321 -14 -1373 1 -75 20 -72 -8 -75 649 -3 654 -3 652
58 683 33 16 95 17 973 15 l939 -3 29 -33z m178 -547 c23 -36 69 -88 102 -117
l59 -52 0 -106 c0 -227 -34 -375 -115 -505 -71 -114 -205 -231 -312 -274 -30
-12 -38 -11 -89 14 -125 61 -254 193 -318 328 -53 109 -67 180 -73 372 l-5
170 55 47 c30 26 76 79 102 118 l47 70 252 0 253 0 42 -65z m-979 -945 l0
-100 -185 0 -185 0 0 100 0 100 185 0 185 0 0 -100z m405 -184 c46 -20 65 -61
65 -141 l0 -65 -652 2 -653 3 1 72 c0 63 4 76 25 99 13 14 33 30 44 34 11 5
271 9 578 9 460 1 564 -1 592 -13z"/>
<path d="M763 1970 c-62 -32 -86 -77 -81 -151 4 -51 9 -64 38 -94 103 -106
270 -39 270 108 0 114 -124 189 -227 137z m110 -62 c34 -17 46 -39 47 -80 0
-28 -7 -42 -31 -62 -33 -28 -59 -32 -92 -14 -33 17 -46 39 -47 79 0 68 64 109
123 77z"/>
<path d="M783 1649 c-90 -17 -165 -76 -202 -159 -25 -56 -28 -135 -5 -144 25
-10 507 -7 523 3 22 14 8 113 -23 165 -60 102 -180 157 -293 135z m147 -89
c45 -23 75 -56 95 -102 8 -21 15 -40 15 -43 0 -3 -92 -5 -205 -5 -135 0 -205
4 -205 10 0 25 42 91 77 119 61 50 148 58 223 21z"/>
<path d="M326 1154 c-9 -8 -16 -19 -16 -23 0 -29 30 -31 527 -31 486 0 503 1
513 19 7 15 6 23 -6 35 -14 14 -74 16 -509 16 -435 0 -495 -2 -509 -16z"/>
<path d="M319 894 c-9 -11 -10 -20 -2 -32 9 -15 56 -17 514 -20 459 -2 505 -1
516 14 9 12 9 22 2 35 -9 18 -32 19 -513 19 -447 0 -505 -2 -517 -16z"/>
<path d="M1970 1363 c-92 -35 -137 -156 -91 -246 l19 -37 -40 -145 c-33 -119
-38 -147 -28 -160 18 -22 391 -22 409 -1 10 11 3 46 -28 161 l-40 147 19 39
c59 115 -25 250 -155 248 -27 0 -57 -3 -65 -6z m121 -73 c47 -26 63 -110 29
-153 -27 -33 -25 -51 14 -189 l34 -118 -134 0 -133 0 25 88 c49 171 50 186 26
217 -53 68 -7 165 78 165 23 0 50 -5 61 -10z"/>
</g>
</svg>
