<svg version="1.0" xmlns="http://www.w3.org/2000/svg"
 width="200pt" height="200pt" viewBox="0 0 303.000000 240.000000"
 preserveAspectRatio="xMidYMid meet">

<g transform="translate(0.000000,240.000000) scale(0.100000,-0.100000)"
fill="#000000" stroke="none">
<path d="M353 2145 c-18 -8 -42 -29 -53 -47 -19 -31 -20 -50 -20 -358 0 -305
1 -327 20 -357 32 -54 63 -63 210 -63 l130 0 0 -50 0 -49 -87 -3 c-85 -3 -88
-4 -91 -27 -6 -43 19 -51 165 -51 l133 0 0 -272 0 -273 -29 -17 c-90 -50 -90
-176 -2 -235 62 -42 152 -22 192 43 l21 34 233 0 233 0 4 -70 c3 -60 8 -74 31
-98 l27 -27 643 -3 c674 -3 682 -2 712 42 19 26 22 345 3 379 -25 48 -6 46
-700 47 l-657 0 -27 -23 c-23 -20 -27 -33 -32 -95 l-5 -72 -238 0 c-198 0
-239 2 -239 14 0 15 -64 76 -80 76 -6 0 -10 105 -10 275 l0 275 145 0 c132 0
147 2 165 20 16 16 18 25 10 40 -9 18 -21 20 -95 20 l-85 0 0 50 0 50 133 0
c113 0 137 3 164 20 62 37 63 45 63 402 0 306 -1 325 -20 356 -38 61 -45 62
-512 62 -341 -1 -429 -4 -455 -15z m888 -75 c18 -10 19 -24 19 -265 l0 -255
-450 0 -450 0 0 255 c0 231 2 255 18 264 24 14 836 15 863 1z m19 -623 c0 -47
1 -47 -450 -47 -451 0 -450 0 -450 47 l0 23 450 0 450 0 0 -23z m-360 -177 l0
-50 -90 0 -90 0 0 50 0 50 90 0 90 0 0 -50z m1858 -813 l3 -157 -633 2 -633 3
-3 145 c-1 79 0 150 2 157 4 11 125 13 633 11 l628 -3 3 -158z m-1916 46 c22
-20 24 -66 2 -87 -35 -36 -104 -7 -104 42 0 54 62 81 102 45z"/>
<path d="M1668 535 c-55 -31 -64 -94 -22 -144 21 -26 33 -31 69 -31 36 0 48 5
69 31 70 82 -22 197 -116 144z m60 -82 c-4 -22 -22 -20 -26 1 -2 10 3 16 13
16 10 0 15 -7 13 -17z"/>
<path d="M2077 483 c-14 -13 -6 -53 12 -63 12 -6 122 -10 289 -10 252 0 270 1
286 19 14 15 15 24 6 40 -10 21 -17 21 -299 21 -158 0 -291 -3 -294 -7z"/>
<path d="M1457 1209 c-37 -21 -47 -71 -47 -222 0 -80 5 -158 11 -176 22 -63 3
-61 714 -61 l647 0 29 29 29 29 0 177 0 177 -29 29 -29 29 -654 0 c-446 -1
-659 -4 -671 -11z m1303 -224 l0 -155 -635 0 -635 0 0 155 0 155 635 0 635 0
0 -155z"/>
<path d="M1675 1066 c-77 -33 -69 -150 10 -176 65 -22 125 21 125 88 0 43 -24
78 -62 91 -38 13 -36 13 -73 -3z m55 -86 c0 -11 -7 -20 -15 -20 -8 0 -15 9
-15 20 0 11 7 20 15 20 8 0 15 -9 15 -20z"/>
<path d="M2082 1008 c-7 -7 -12 -19 -12 -28 0 -38 16 -40 301 -40 239 0 280 2
293 16 9 8 16 19 16 24 0 5 -7 16 -16 24 -13 14 -54 16 -293 16 -202 0 -280
-3 -289 -12z"/>
</g>
</svg>