<svg version="1.0" xmlns="http://www.w3.org/2000/svg"
 width="267.000000pt" height="253.000000pt" viewBox="0 0 267.000000 253.000000"
 preserveAspectRatio="xMidYMid meet">

<g transform="translate(0.000000,253.000000) scale(0.100000,-0.100000)"
fill="#000000" stroke="none">
<path d="M660 2475 c-272 -35 -459 -104 -529 -194 l-26 -34 -3 -824 c-3 -926
-7 -867 72 -925 144 -107 373 -158 743 -165 l241 -5 53 -54 c29 -30 59 -54 65
-54 6 0 37 12 68 26 l57 26 72 -30 c40 -17 79 -33 87 -35 8 -2 24 -30 34 -61
11 -31 25 -61 32 -66 7 -7 64 -9 140 -8 l128 3 25 64 c26 62 28 64 86 86 33
12 72 27 86 34 22 11 33 9 83 -13 32 -14 63 -26 68 -26 12 0 166 148 179 172
6 12 2 34 -16 74 -26 60 -30 84 -16 100 5 5 20 38 34 74 25 64 26 65 89 90
l63 25 3 125 c1 69 -1 130 -5 137 -5 6 -34 22 -66 35 -57 23 -58 24 -92 103
-19 44 -35 85 -35 91 0 6 12 37 26 68 l25 56 -19 27 c-27 38 -158 163 -170
163 -5 0 -35 -11 -67 -25 l-57 -25 -86 34 -87 35 -26 63 -26 63 -46 3 -47 3 0
250 c0 282 -2 291 -70 353 -71 64 -201 112 -400 148 -150 26 -513 34 -670 13z
m538 -76 c223 -24 414 -83 483 -148 46 -44 48 -59 13 -100 -50 -59 -225 -122
-424 -153 -127 -20 -549 -17 -670 5 -192 33 -326 82 -387 140 -44 42 -42 68 9
111 72 62 266 122 468 145 110 12 396 13 508 0z m-834 -423 c260 -85 718 -101
1029 -36 113 23 225 61 283 95 l44 26 0 -176 0 -175 -44 0 c-50 0 -52 -3 -82
-79 -19 -51 -23 -55 -80 -76 -32 -12 -71 -28 -86 -35 -24 -12 -34 -10 -86 14
-33 14 -63 26 -66 26 -4 0 -31 -22 -59 -49 l-52 -48 -115 -6 c-222 -13 -524
23 -683 80 -81 28 -163 76 -177 104 -6 10 -10 108 -10 218 l0 201 53 -29 c28
-17 88 -41 131 -55z m1496 -406 c22 -58 24 -60 74 -75 28 -8 79 -29 113 -46
l63 -32 57 26 58 26 56 -55 57 -56 -26 -59 -25 -58 30 -63 c17 -35 38 -86 47
-114 16 -50 19 -52 76 -73 l60 -22 0 -77 0 -78 -62 -29 -61 -30 -28 -77 c-15
-42 -34 -87 -43 -100 -21 -30 -20 -44 8 -104 l24 -52 -57 -55 -56 -56 -58 25
-58 25 -73 -36 c-40 -19 -87 -38 -104 -41 -38 -8 -54 -26 -77 -87 l-18 -47
-79 0 c-78 0 -79 1 -89 28 -26 76 -42 94 -99 112 -30 9 -79 29 -109 44 l-53
28 -61 -27 -61 -26 -55 55 -54 55 27 60 27 60 -22 43 c-13 24 -34 74 -48 112
-26 68 -27 70 -81 92 l-55 22 -3 79 -3 79 59 26 c57 24 60 28 77 79 10 30 31
80 47 112 l29 58 -27 60 -27 60 54 55 55 54 60 -26 61 -26 54 28 c30 15 79 35
109 44 57 18 73 36 99 112 10 27 11 28 89 28 l80 0 22 -60z m-1574 -90 c141
-61 391 -101 635 -104 l165 -1 27 -65 27 -64 -37 -87 -37 -87 -60 -23 -61 -24
-3 -49 -3 -49 -117 7 c-294 17 -557 90 -621 172 -20 25 -21 39 -21 231 l0 204
29 -20 c16 -11 51 -30 77 -41z m142 -570 c112 -28 245 -47 390 -56 l121 -7 3
-46 3 -46 62 -25 c54 -22 64 -30 74 -60 7 -19 23 -57 36 -84 l24 -48 -27 -64
-27 -64 -144 0 c-339 0 -627 64 -730 163 l-33 31 0 202 0 203 83 -39 c45 -21
119 -48 165 -60z"/>
<path d="M846 1707 c-11 -8 -17 -23 -14 -38 3 -24 5 -24 112 -27 81 -2 112 1
118 10 12 20 10 35 -8 52 -20 21 -181 23 -208 3z"/>
<path d="M1640 1315 c-121 -34 -227 -126 -284 -245 -29 -61 -31 -72 -31 -180
0 -108 2 -119 31 -180 163 -341 629 -348 798 -13 108 215 12 485 -211 591 -63
29 -86 35 -161 38 -58 3 -105 -1 -142 -11z m265 -99 c78 -35 146 -103 182
-180 24 -52 28 -74 28 -146 0 -110 -32 -186 -111 -260 -79 -75 -129 -94 -244
-95 -83 0 -102 3 -152 27 -209 98 -274 366 -133 551 38 49 114 102 178 123 67
22 180 13 252 -20z"/>
<path d="M842 1178 c-15 -15 -15 -41 0 -56 15 -15 181 -16 209 -2 21 12 25 40
7 58 -16 16 -200 16 -216 0z"/>
<path d="M842 658 c-6 -6 -12 -20 -12 -29 0 -32 25 -40 125 -37 80 2 100 6
109 21 8 12 8 22 0 35 -9 14 -29 18 -110 20 -69 2 -103 -1 -112 -10z"/>
</g>
</svg>